<?xml version="1.0" encoding="iso-8859-1"?>
<!-- Generator: Adobe Illustrator 19.0.0, SVG Export Plug-In . SVG Version: 6.00 Build 0)  -->
<svg version="1.1" id="Capa_1" xmlns="http://www.w3.org/2000/svg" xmlns:xlink="http://www.w3.org/1999/xlink" x="0px" y="0px"
	 viewBox="0 0 511.999 511.999" style="enable-background:new 0 0 511.999 511.999;" xml:space="preserve" fill="#304CFD">
<g>
	<g>
		<path d="M99.091,125.82c-1.404-0.841-2.986-1.262-4.748-1.262H73.317c-1.764,0-3.025,0.722-3.785,2.163
			c-0.764,1.442-1.142,2.965-1.142,4.566c0,1.844,0.422,3.466,1.262,4.866c0.842,1.403,2.063,2.104,3.666,2.104h12.257v47.347
			c-0.001,4.728-1.103,8.213-3.306,10.456c-2.203,2.243-5.348,3.364-9.433,3.364c-2.404,0-4.408-0.379-6.01-1.142
			c-1.604-0.761-2.865-1.761-3.785-3.004c-0.922-1.241-1.561-2.623-1.922-4.145c-0.361-1.521-0.582-3.044-0.66-4.566
			c-0.162-1.923-0.983-3.224-2.465-3.905c-1.482-0.68-3.264-1.021-5.346-1.021c-2.645,0-4.607,0.501-5.889,1.502
			c-1.283,1.003-1.922,3.024-1.922,6.068c0,3.767,0.721,7.11,2.162,10.034c1.441,2.926,3.424,5.429,5.947,7.511
			c2.524,2.084,5.547,3.665,9.073,4.746c3.525,1.082,7.371,1.622,11.538,1.622c3.764,0,7.331-0.501,10.694-1.502
			c3.365-1.001,6.309-2.583,8.833-4.746c2.523-2.163,4.506-4.987,5.949-8.473c1.441-3.484,2.162-7.752,2.162-12.799v-56.12
			C101.193,127.884,100.492,126.662,99.091,125.82z" fill="#304CFD"/>
	</g>
</g>
<g>
	<g>
		<path d="M175.823,204.712l-23.193-75.588c-0.564-1.842-1.804-3.184-3.728-4.025c-1.922-0.841-4.045-1.262-6.367-1.262
			c-2.244,0-4.326,0.421-6.25,1.262c-1.922,0.841-3.164,2.184-3.725,4.025l-23.193,75.588c-0.162,0.642-0.24,1.042-0.24,1.201
			c0,0.962,0.318,1.844,0.961,2.644c0.641,0.802,1.441,1.483,2.404,2.043c0.961,0.561,2.021,1.003,3.184,1.322
			c1.16,0.321,2.262,0.48,3.305,0.48c1.361,0,2.502-0.24,3.424-0.721c0.92-0.48,1.543-1.281,1.863-2.403l4.566-15.983h27.52
			l4.566,15.983c0.318,1.122,0.939,1.923,1.861,2.403c0.92,0.48,2.063,0.721,3.426,0.721c1.039,0,2.143-0.159,3.305-0.48
			c1.16-0.319,2.223-0.781,3.184-1.382s1.762-1.28,2.402-2.043c0.641-0.761,0.963-1.622,0.963-2.584
			C176.063,205.754,175.981,205.353,175.823,204.712z M132.079,181.039l10.456-36.893l10.454,36.893H132.079z" fill="#304CFD"/>
	</g>
</g>
<g>
	<g>
		<path d="M239.633,128.463c-0.643-0.76-1.441-1.441-2.402-2.042c-0.963-0.602-2.025-1.062-3.186-1.382
			c-1.162-0.319-2.264-0.481-3.305-0.481c-1.363,0-2.504,0.24-3.424,0.722c-0.922,0.48-1.543,1.282-1.863,2.403l-18.265,65.132
			l-18.388-65.132c-0.32-1.121-0.941-1.923-1.861-2.403c-0.922-0.481-2.065-0.722-3.426-0.722c-1.041,0-2.143,0.162-3.303,0.481
			c-1.164,0.32-2.225,0.762-3.186,1.321c-0.961,0.562-1.764,1.243-2.402,2.043c-0.643,0.802-0.963,1.683-0.963,2.643
			c0,0.161,0.08,0.562,0.242,1.201l23.193,75.588c0.64,1.845,1.902,3.186,3.787,4.026c1.881,0.842,3.982,1.262,6.309,1.262
			c2.322,0,4.445-0.42,6.367-1.262c1.924-0.841,3.164-2.182,3.727-4.025l23.071-75.588c0.16-0.64,0.24-1.04,0.24-1.201
			C240.594,130.086,240.274,129.226,239.633,128.463z" fill="#304CFD"/>
	</g>
</g>
<g>
	<g>
		<path d="M304.886,204.712l-23.193-75.588c-0.561-1.842-1.803-3.185-3.725-4.025c-1.924-0.841-4.047-1.262-6.369-1.262
			c-2.244,0-4.326,0.421-6.248,1.262c-1.924,0.841-3.166,2.184-3.725,4.025l-23.193,75.588c-0.162,0.642-0.242,1.042-0.242,1.201
			c0,0.962,0.32,1.844,0.963,2.644c0.637,0.802,1.44,1.483,2.401,2.043c0.961,0.561,2.021,1.003,3.186,1.322
			c1.16,0.321,2.262,0.48,3.303,0.48c1.361,0,2.504-0.24,3.426-0.721c0.92-0.48,1.541-1.281,1.861-2.403l4.566-15.983h27.52
			l4.566,15.983c0.32,1.122,0.941,1.923,1.863,2.403c0.92,0.48,2.061,0.721,3.424,0.721c1.041,0,2.143-0.159,3.305-0.48
			c1.16-0.319,2.223-0.781,3.186-1.382c0.961-0.601,1.76-1.28,2.402-2.043c0.641-0.761,0.961-1.622,0.961-2.584
			C305.126,205.754,305.046,205.353,304.886,204.712z M261.142,181.04l10.456-36.893l10.456,36.893H261.142z" fill="#304CFD"/>
	</g>
</g>
<g>
	<g>
		<path d="M263.028,358.788l-25.211-25.21l25.21-25.209c2.929-2.931,2.929-7.679,0-10.61c-2.929-2.928-7.677-2.928-10.608,0
			l-30.513,30.513c-1.407,1.407-2.197,3.315-2.197,5.304c0,1.989,0.79,3.896,2.196,5.304l30.514,30.514
			c1.465,1.464,3.385,2.196,5.304,2.196s3.839-0.732,5.304-2.196C265.958,366.466,265.958,361.717,263.028,358.788z" fill="#304CFD"/>
	</g>
</g>
<g>
	<g>
		<path d="M395.502,328.272l-30.513-30.513c-2.93-2.928-7.679-2.928-10.608,0c-2.929,2.93-2.929,7.678,0.001,10.608l25.21,25.209
			l-25.211,25.21c-2.93,2.931-2.93,7.679-0.001,10.61c1.465,1.464,3.385,2.196,5.304,2.196c1.919,0,3.839-0.732,5.304-2.196
			l30.514-30.514c1.406-1.407,2.196-3.315,2.196-5.304S396.909,329.68,395.502,328.272z" fill="#304CFD"/>
	</g>
</g>
<g>
	<g>
		<path d="M327.071,282.176c-3.896-1.42-8.198,0.591-9.614,4.482l-34.271,94.157c-1.419,3.893,0.589,8.197,4.481,9.614
			c0.848,0.308,1.713,0.454,2.565,0.454c3.063,0,5.94-1.892,7.049-4.936l34.271-94.157
			C332.97,287.897,330.962,283.593,327.071,282.176z" fill="#304CFD"/>
	</g>
</g>
<g>
	<g>
		<path d="M511.767,158.344c-0.001-0.75-0.023-1.52-0.056-2.31c-0.494-19.142-6.837-37.287-18.203-52.372
			c-0.042-0.057-0.088-0.111-0.131-0.167c-0.807-1.066-1.632-2.121-2.489-3.156c-0.297-0.359-0.612-0.705-0.915-1.06
			c-0.629-0.736-1.252-1.477-1.906-2.196c-0.984-1.083-1.995-2.146-3.035-3.187l-38.955-38.955l-15.118-15.118
			c-3.183-3.318-6.471-6.659-10.108-9.967c-20.363-18.797-46.501-29.31-74.293-29.829c-0.763-0.016-1.477-0.024-2.155-0.026
			c-0.002,0-0.005,0-0.007,0h-0.007c-0.331-0.001-0.649-0.001-0.958,0H196.556c-4.143,0-7.5,3.357-7.5,7.5
			c0,4.142,3.357,7.5,7.5,7.5h140.381c0.863,0.082,1.827,0.073,3.173,0.047c39.09,1.389,40.399,32.847,40.418,36.469v50.8
			c0,12.538,8.124,23.617,19.942,27.473c2.444,1.288,5.898,1.336,11.957,1.419c5.99,0.083,15.59,0.071,30.116,0.053
			c7.75-0.01,16.931-0.021,27.773-0.021c16.644,1.201,25.518,9.502,26.375,24.675l0.025,0.661c0.025,0.622,0.052,1.245,0.052,1.871
			c0,0.007,0.001,0.013,0.001,0.019v261.856c0,4.143,3.357,7.5,7.5,7.5c4.143,0,7.5-3.357,7.5-7.5V158.447
			C511.77,158.413,511.767,158.379,511.767,158.344z M471.084,116.258c-0.168-0.012-0.337-0.018-0.506-0.018
			c-10.963,0-20.236,0.012-28.053,0.021c-20.269,0.024-32.216,0.041-35.796-0.224c-0.283-0.113-0.576-0.212-0.878-0.293
			c-6.077-1.624-10.322-7.144-10.322-13.427V51.48c-0.005-1.04-0.229-13.644-7.375-26.118c1.603,0.804,3.223,1.671,4.854,2.603
			c7.135,4.086,12.758,8.449,17.776,13.014c0.945,0.874,1.879,1.763,2.794,2.679l6.688,6.686c0.763,0.796,1.526,1.595,2.293,2.4
			c4.07,4.271,8.279,8.686,13.042,12.936l38.823,38.822c0.791,0.791,1.555,1.602,2.306,2.421c0.188,0.205,0.377,0.41,0.563,0.617
			c0.684,0.762,1.352,1.535,2.003,2.319c0.249,0.302,0.491,0.609,0.736,0.914c0.394,0.49,0.779,0.986,1.159,1.484
			c0.694,0.911,1.369,1.835,2.019,2.774c0.074,0.106,0.15,0.21,0.223,0.317c0.874,1.277,1.708,2.578,2.501,3.902
			C481.475,117.641,476.505,116.624,471.084,116.258z"/>
	</g>
</g>
<g>
	<g>
		<path d="M504.269,447.825c-4.143,0-7.5,3.357-7.5,7.5v27.753c0,7.677-6.245,13.921-13.922,13.921H134.56
			c-7.677,0-13.921-6.244-13.921-13.921v-234.6h75.917h74.39c4.143,0,7.5-3.357,7.5-7.5s-3.357-7.5-7.5-7.5h-74.39h-83.417H25.262
			c-5.531,0-10.032-4.5-10.032-10.032v-108.61c0-5.532,4.5-10.033,10.032-10.033h87.877h213.079c5.531,0,10.032,4.5,10.032,10.033
			v108.609c0,5.531-4.5,10.032-10.032,10.032h-20.27c-4.143,0-7.5,3.357-7.5,7.5c0,4.143,3.357,7.5,7.5,7.5h20.27
			c13.791,0,25.011-11.209,25.032-24.994c0-0.013,0.002-0.026,0.002-0.039V114.835c0-12.941-9.871-23.62-22.478-24.905
			c-0.841-0.086-1.693-0.129-2.556-0.129H120.639V28.923c0-6.28,4.244-11.802,10.321-13.426c0.014-0.004,0.026-0.008,0.04-0.011
			c0.438-0.116,0.897-0.213,1.362-0.286c0.011-0.002,0.104-0.017,0.113-0.019c0.146-0.024,0.293-0.049,0.365-0.059
			c0.178-0.021,0.355-0.041,0.565-0.059c0.473-0.042,0.84-0.062,1.153-0.062h26.994c4.143,0,7.5-3.358,7.5-7.5
			c0-4.143-3.357-7.5-7.5-7.5h-26.994c-0.77,0-1.561,0.039-2.458,0.119c-0.349,0.029-0.694,0.066-1.115,0.117
			c-0.309,0.04-0.613,0.088-0.968,0.145c-0.992,0.157-1.979,0.366-2.931,0.621c-0.018,0.005-0.034,0.009-0.051,0.014
			c-12.602,3.393-21.398,14.86-21.398,27.905V89.8H25.262c-13.804,0-25.033,11.23-25.033,25.034v108.611
			c0,13.804,11.229,25.033,25.033,25.033h80.376v234.6c0,15.947,12.975,28.922,28.922,28.922h348.286
			c15.948,0,28.923-12.975,28.923-28.922v-27.753C511.77,451.182,508.411,447.825,504.269,447.825z"/>
	</g>
</g>
<g>
</g>
<g>
</g>
<g>
</g>
<g>
</g>
<g>
</g>
<g>
</g>
<g>
</g>
<g>
</g>
<g>
</g>
<g>
</g>
<g>
</g>
<g>
</g>
<g>
</g>
<g>
</g>
<g>
</g>
</svg>
